<?xml version="1.0" encoding="UTF-8"?>
<!DOCTYPE svg PUBLIC "-//W3C//DTD SVG 1.1//EN" "http://www.w3.org/Graphics/SVG/1.1/DTD/svg11.dtd">
<svg version="1.1" xmlns="http://www.w3.org/2000/svg" xmlns:xlink="http://www.w3.org/1999/xlink" x="0px" y="0px" width="135" height="40" viewBox="0, 0, 135, 40">
  <g id="Background">
    <rect x="0" y="0" width="135" height="40" fill="#FFFFFF"/>
  </g>
  <g id="Layer 1">
    <g>
      <path d="M4.729,39.098 C2.61,39.098 0.89,37.384 0.89,35.268 L0.89,4.725 C0.89,2.61 2.61,0.89 4.729,0.89 L130.197,0.89 C132.318,0.89 134.031,2.61 134.031,4.725 L134.032,35.268 C134.032,37.384 132.318,39.098 130.198,39.098 z M19.174,32.052 C20.404,31.618 19.98,31.826 20.503,31.558 C22.344,32.271 24.117,31.918 26.035,31.719 C28.319,30.854 29,30.847 30.839,29.152 C34.508,25.77 35.484,20.602 35.178,15.831 C34.614,8.777 30.852,4.321 24.898,5.211 C21.398,5.989 19.19,7.388 16.697,9.949 C14.266,9.596 11.974,11.408 11.379,13.696 C10.842,14.624 11.151,17.147 10.896,17.886 C10.588,18.777 10.136,19.621 9.913,20.536 C9.251,23.245 9.44,25.001 10.436,27.524 C12.217,31.086 15.472,32.975 19.174,32.052 z" fill="#333333"/>
      <path d="M27.879,31.688 C26.732,31.543 27.124,31.682 26.644,31.496 C27.4,31.22 28.396,30.906 29.113,30.481 C30.191,29.842 31.36,28.802 32.091,27.804 C32.504,27.241 32.798,26.598 33.151,25.995 C32.361,27.721 32.816,26.863 31.769,28.561 C30.721,30.128 29.623,31.661 27.879,31.688 z" fill="#F7F7F7"/>
      <g>
        <path d="M53.665,31.504 L51.394,31.504 L50.15,27.595 L45.826,27.595 L44.641,31.504 L42.43,31.504 L46.715,18.196 L49.361,18.196 L53.665,31.504 z M49.775,25.955 L48.65,22.48 C48.531,22.125 48.307,21.289 47.979,19.973 L47.939,19.973 C47.807,20.539 47.596,21.375 47.307,22.48 L46.201,25.955 L49.775,25.955 z" fill="#F7F7F7"/>
        <path d="M64.663,26.588 C64.663,28.22 64.22,29.51 63.333,30.457 C62.539,31.3 61.552,31.721 60.375,31.721 C59.104,31.721 58.19,31.268 57.635,30.36 L57.635,35.395 L55.503,35.395 L55.503,25.062 C55.503,24.037 55.476,22.986 55.424,21.908 L57.299,21.908 L57.418,23.429 L57.458,23.429 C58.169,22.283 59.248,21.71 60.696,21.71 C61.828,21.71 62.773,22.157 63.529,23.052 C64.284,23.949 64.663,25.127 64.663,26.588 z M62.491,26.666 C62.491,25.732 62.281,24.962 61.859,24.355 C61.398,23.724 60.779,23.408 60.003,23.408 C59.477,23.408 58.999,23.584 58.572,23.931 C58.144,24.281 57.864,24.738 57.733,25.304 C57.667,25.568 57.634,25.783 57.634,25.953 L57.634,27.554 C57.634,28.251 57.848,28.84 58.276,29.322 C58.704,29.802 59.26,30.043 59.944,30.043 C60.747,30.043 61.372,29.732 61.819,29.115 C62.267,28.496 62.491,27.68 62.491,26.666 z" fill="#F7F7F7"/>
        <path d="M75.7,26.588 C75.7,28.22 75.257,29.51 74.37,30.457 C73.575,31.3 72.589,31.721 71.411,31.721 C70.14,31.721 69.226,31.268 68.671,30.36 L68.671,35.395 L66.539,35.395 L66.539,25.062 C66.539,24.037 66.512,22.986 66.46,21.908 L68.335,21.908 L68.454,23.429 L68.494,23.429 C69.204,22.283 70.283,21.71 71.732,21.71 C72.863,21.71 73.808,22.157 74.566,23.052 C75.32,23.949 75.7,25.127 75.7,26.588 z M73.527,26.666 C73.527,25.732 73.316,24.962 72.894,24.355 C72.433,23.724 71.816,23.408 71.04,23.408 C70.514,23.408 70.036,23.584 69.607,23.931 C69.179,24.281 68.9,24.738 68.769,25.304 C68.704,25.568 68.669,25.783 68.669,25.953 L68.669,27.554 C68.669,28.251 68.884,28.84 69.31,29.322 C69.738,29.801 70.294,30.043 70.98,30.043 C71.784,30.043 72.409,29.732 72.855,29.115 C73.303,28.496 73.527,27.68 73.527,26.666 z" fill="#F7F7F7"/>
        <path d="M88.04,27.771 C88.04,28.904 87.644,29.825 86.857,30.536 C85.991,31.312 84.782,31.701 83.232,31.701 C81.8,31.701 80.652,31.425 79.786,30.872 L80.279,29.095 C81.214,29.649 82.241,29.925 83.359,29.925 C84.163,29.925 84.788,29.743 85.234,29.382 C85.681,29.02 85.907,28.536 85.907,27.932 C85.907,27.391 85.72,26.938 85.353,26.569 C84.984,26.201 84.374,25.858 83.517,25.543 C81.187,24.674 80.021,23.403 80.021,21.731 C80.021,20.639 80.433,19.745 81.255,19.046 C82.077,18.348 83.167,17.999 84.523,17.999 C85.734,17.999 86.743,18.21 87.544,18.631 L87.009,20.369 C86.255,19.961 85.404,19.757 84.452,19.757 C83.7,19.757 83.11,19.942 82.688,20.31 C82.333,20.639 82.153,21.04 82.153,21.516 C82.153,22.041 82.358,22.477 82.766,22.819 C83.12,23.134 83.766,23.477 84.7,23.845 C85.846,24.307 86.688,24.845 87.227,25.463 C87.77,26.081 88.04,26.852 88.04,27.771 z" fill="#F7F7F7"/>
        <path d="M95.107,23.508 L92.757,23.508 L92.757,28.167 C92.757,29.352 93.171,29.943 94.001,29.943 C94.382,29.943 94.698,29.911 94.948,29.844 L95.007,31.463 C94.587,31.62 94.034,31.699 93.349,31.699 C92.507,31.699 91.849,31.442 91.374,30.928 C90.901,30.414 90.663,29.553 90.663,28.341 L90.663,23.504 L89.263,23.504 L89.263,21.904 L90.663,21.904 L90.663,20.147 L92.757,19.515 L92.757,21.904 L95.107,21.904 L95.107,23.508 z" fill="#F7F7F7"/>
        <path d="M105.689,26.627 C105.689,28.102 105.267,29.313 104.425,30.26 C103.544,31.235 102.372,31.721 100.912,31.721 C99.501,31.721 98.38,31.254 97.544,30.321 C96.708,29.386 96.29,28.208 96.29,26.787 C96.29,25.3 96.722,24.082 97.583,23.135 C98.446,22.187 99.608,21.713 101.07,21.713 C102.477,21.713 103.608,22.181 104.464,23.115 C105.282,24.021 105.689,25.191 105.689,26.627 z M103.479,26.676 C103.479,25.797 103.289,25.043 102.908,24.412 C102.461,23.65 101.822,23.269 100.993,23.269 C100.139,23.269 99.483,23.65 99.037,24.412 C98.655,25.043 98.465,25.81 98.465,26.716 C98.465,27.596 98.655,28.352 99.037,28.981 C99.498,29.743 100.142,30.124 100.974,30.124 C101.79,30.124 102.428,29.735 102.89,28.962 C103.282,28.316 103.479,27.557 103.479,26.676 z" fill="#F7F7F7"/>
        <path d="M112.622,23.783 C112.411,23.744 112.185,23.724 111.951,23.724 C111.201,23.724 110.62,24.006 110.213,24.574 C109.859,25.074 109.681,25.706 109.681,26.469 L109.681,31.504 L107.549,31.504 L107.549,24.93 C107.549,23.825 107.527,22.817 107.487,21.909 L109.344,21.909 L109.422,23.745 L109.481,23.745 C109.707,23.114 110.061,22.605 110.547,22.224 C111.022,21.881 111.535,21.71 112.088,21.71 C112.285,21.71 112.463,21.724 112.621,21.749 L112.622,23.783 L112.622,23.783 z" fill="#F7F7F7"/>
        <path d="M122.157,26.252 C122.157,26.634 122.132,26.956 122.079,27.219 L115.683,27.219 C115.707,28.167 116.017,28.893 116.611,29.393 C117.15,29.839 117.847,30.063 118.703,30.063 C119.65,30.063 120.514,29.913 121.291,29.61 L121.625,31.089 C120.717,31.485 119.645,31.682 118.408,31.682 C116.92,31.682 115.752,31.244 114.902,30.37 C114.054,29.495 113.629,28.319 113.629,26.846 C113.629,25.4 114.024,24.195 114.815,23.234 C115.643,22.208 116.762,21.695 118.17,21.695 C119.553,21.695 120.6,22.208 121.311,23.234 C121.874,24.047 122.157,25.055 122.157,26.252 z M120.124,25.699 C120.139,25.066 119.999,24.521 119.71,24.06 C119.341,23.466 118.773,23.17 118.012,23.17 C117.315,23.17 116.747,23.459 116.315,24.039 C115.96,24.5 115.749,25.054 115.684,25.697 L120.124,25.699 L120.124,25.699 z" fill="#F7F7F7"/>
      </g>
      <g>
        <path d="M45.211,13.491 C44.618,13.491 44.105,13.462 43.678,13.413 L43.678,6.979 C44.231,6.892 44.832,6.843 45.483,6.843 C47.928,6.843 49.054,8.046 49.054,10.007 C49.054,12.269 47.724,13.491 45.211,13.491 z M45.569,7.668 C45.239,7.668 44.958,7.688 44.725,7.736 L44.725,12.627 C44.851,12.647 45.093,12.656 45.433,12.656 C47.035,12.656 47.947,11.744 47.947,10.036 C47.947,8.513 47.122,7.668 45.569,7.668 z" fill="#F7F7F7"/>
        <path d="M52.563,13.54 C51.185,13.54 50.292,12.511 50.292,11.114 C50.292,9.658 51.204,8.62 52.641,8.62 C53.999,8.62 54.912,9.6 54.912,11.037 C54.912,12.511 53.971,13.54 52.563,13.54 z M52.603,9.386 C51.846,9.386 51.361,10.094 51.361,11.084 C51.361,12.055 51.856,12.763 52.593,12.763 C53.33,12.763 53.825,12.006 53.825,11.064 C53.825,10.104 53.34,9.386 52.603,9.386 z" fill="#F7F7F7"/>
        <path d="M62.77,8.717 L61.295,13.433 L60.334,13.433 L59.723,11.385 C59.568,10.871 59.442,10.366 59.344,9.862 L59.324,9.862 C59.247,10.376 59.101,10.891 58.946,11.385 L58.296,13.433 L57.325,13.433 L55.937,8.717 L57.014,8.717 L57.548,10.959 C57.674,11.493 57.78,11.997 57.868,12.473 L57.888,12.473 C57.965,12.076 58.091,11.58 58.276,10.969 L58.946,8.718 L59.8,8.718 L60.441,10.921 C60.596,11.455 60.722,11.979 60.82,12.474 L60.848,12.474 C60.916,11.989 61.023,11.474 61.168,10.921 L61.741,8.718 L62.77,8.717 L62.77,8.717 z" fill="#F7F7F7"/>
        <path d="M68.2,13.433 L67.152,13.433 L67.152,10.725 C67.152,9.891 66.832,9.473 66.201,9.473 C65.58,9.473 65.153,10.007 65.153,10.628 L65.153,13.433 L64.105,13.433 L64.105,10.065 C64.105,9.648 64.095,9.201 64.066,8.716 L64.988,8.716 L65.037,9.444 L65.066,9.444 C65.348,8.94 65.92,8.62 66.561,8.62 C67.551,8.62 68.201,9.377 68.201,10.609 L68.2,13.433 L68.2,13.433 z" fill="#F7F7F7"/>
        <path d="M71.09,13.433 L70.041,13.433 L70.041,6.553 L71.09,6.553 L71.09,13.433 z" fill="#F7F7F7"/>
        <path d="M74.911,13.54 C73.534,13.54 72.64,12.511 72.64,11.114 C72.64,9.658 73.552,8.62 74.988,8.62 C76.347,8.62 77.259,9.6 77.259,11.037 C77.26,12.511 76.318,13.54 74.911,13.54 z M74.95,9.386 C74.193,9.386 73.708,10.094 73.708,11.084 C73.708,12.055 74.204,12.763 74.939,12.763 C75.677,12.763 76.171,12.006 76.171,11.064 C76.172,10.104 75.688,9.386 74.95,9.386 z" fill="#F7F7F7"/>
        <path d="M81.391,13.433 L81.315,12.89 L81.287,12.89 C80.967,13.327 80.5,13.54 79.908,13.54 C79.063,13.54 78.463,12.948 78.463,12.152 C78.463,10.988 79.472,10.386 81.219,10.386 L81.219,10.299 C81.219,9.678 80.89,9.367 80.24,9.367 C79.775,9.367 79.367,9.484 79.008,9.717 L78.795,9.028 C79.231,8.756 79.775,8.62 80.414,8.62 C81.646,8.62 82.268,9.27 82.268,10.571 L82.268,12.308 C82.268,12.784 82.289,13.153 82.336,13.434 L81.391,13.433 L81.391,13.433 z M81.247,11.084 C80.083,11.084 79.499,11.366 79.499,12.035 C79.499,12.53 79.8,12.772 80.218,12.772 C80.751,12.772 81.247,12.365 81.247,11.812 L81.247,11.084 z" fill="#F7F7F7"/>
        <path d="M87.357,13.433 L87.308,12.676 L87.279,12.676 C86.978,13.248 86.472,13.54 85.765,13.54 C84.628,13.54 83.786,12.54 83.786,11.133 C83.786,9.658 84.659,8.619 85.851,8.619 C86.482,8.619 86.929,8.832 87.181,9.26 L87.202,9.26 L87.202,6.553 L88.251,6.553 L88.251,12.162 C88.251,12.618 88.262,13.045 88.29,13.433 L87.357,13.433 z M87.202,10.658 C87.202,9.998 86.765,9.435 86.098,9.435 C85.321,9.435 84.846,10.124 84.846,11.094 C84.846,12.045 85.339,12.696 86.077,12.696 C86.736,12.696 87.202,12.123 87.202,11.444 L87.202,10.658 z" fill="#F7F7F7"/>
        <path d="M94.902,13.54 C93.525,13.54 92.632,12.511 92.632,11.114 C92.632,9.658 93.544,8.62 94.98,8.62 C96.339,8.62 97.251,9.6 97.251,11.037 C97.252,12.511 96.311,13.54 94.902,13.54 z M94.941,9.386 C94.185,9.386 93.7,10.094 93.7,11.084 C93.7,12.055 94.195,12.763 94.931,12.763 C95.669,12.763 96.163,12.006 96.163,11.064 C96.165,10.104 95.68,9.386 94.941,9.386 z" fill="#F7F7F7"/>
        <path d="M102.887,13.433 L101.838,13.433 L101.838,10.725 C101.838,9.891 101.518,9.473 100.887,9.473 C100.266,9.473 99.84,10.007 99.84,10.628 L99.84,13.433 L98.791,13.433 L98.791,10.065 C98.791,9.648 98.781,9.201 98.752,8.716 L99.674,8.716 L99.723,9.444 L99.752,9.444 C100.033,8.94 100.606,8.619 101.246,8.619 C102.236,8.619 102.887,9.376 102.887,10.608 L102.887,13.433 z" fill="#F7F7F7"/>
        <path d="M109.938,9.503 L108.785,9.503 L108.785,11.793 C108.785,12.376 108.987,12.667 109.395,12.667 C109.58,12.667 109.735,12.647 109.86,12.618 L109.889,13.414 C109.686,13.492 109.414,13.531 109.076,13.531 C108.25,13.531 107.756,13.075 107.756,11.881 L107.756,9.503 L107.068,9.503 L107.068,8.717 L107.756,8.717 L107.756,7.853 L108.785,7.542 L108.785,8.716 L109.938,8.716 L109.938,9.503 z" fill="#F7F7F7"/>
        <path d="M115.486,13.433 L114.439,13.433 L114.439,10.745 C114.439,9.901 114.12,9.474 113.488,9.474 C112.945,9.474 112.439,9.843 112.439,10.59 L112.439,13.433 L111.392,13.433 L111.392,6.553 L112.439,6.553 L112.439,9.386 L112.46,9.386 C112.79,8.872 113.268,8.619 113.878,8.619 C114.876,8.619 115.486,9.395 115.486,10.628 L115.486,13.433 z" fill="#F7F7F7"/>
        <path d="M121.17,11.327 L118.025,11.327 C118.045,12.22 118.636,12.724 119.511,12.724 C119.976,12.724 120.404,12.646 120.782,12.501 L120.945,13.229 C120.499,13.423 119.974,13.52 119.363,13.52 C117.888,13.52 117.015,12.588 117.015,11.143 C117.015,9.697 117.909,8.61 119.245,8.61 C120.45,8.61 121.206,9.503 121.206,10.852 C121.209,11.036 121.2,11.201 121.17,11.327 z M120.209,10.58 C120.209,9.852 119.842,9.338 119.172,9.338 C118.57,9.338 118.094,9.862 118.026,10.58 L120.209,10.58 z" fill="#F7F7F7"/>
      </g>
    </g>
    <path d="M35.479,32.836 L35.479,32.836" fill="#333333"/>
    <path d="M26.043,20.57 C19.735,36.975 18.443,22.051 25.099,13.399" fill="#333333"/>
    <path d="M14.908,12.455 C9.269,11.046 9.504,28.017 13.587,27.364 C20.136,26.316 17.945,8.148 16.041,9.058 C10.74,11.593 9.945,32.093 17.739,28.496 C21.226,26.887 28.67,13.328 24.156,10.002 C18.455,5.801 9.313,25.718 18.871,28.685 C25.552,30.758 32.917,17.546 27.93,13.21 C21.525,7.64 14.24,30.514 23.212,24.533" fill="#333333"/>
    <path d="M10.191,20.192 C9.596,22.839 9.051,27.217 11.889,29.062 C20.172,34.446 15.087,10.773 9.813,19.438 C7.329,23.519 10.611,31.273 15.097,32.27 C19.763,33.307 29.011,24.565 25.099,19.815 C20.54,14.278 14.694,27.26 20.381,31.138 C25.639,34.722 33.165,21.855 30.006,18.871 C25.956,15.047 16.276,22.367 20.381,26.231 C24.332,29.95 26.939,25.235 28.685,22.834" fill="#333333"/>
    <path d="M34.346,20.759 C33.96,24.15 16.041,29.045 16.041,30.194 C16.041,37.493 37.814,29.262 31.893,20.381 C29.478,16.758 22.941,29.611 26.42,30.949 C29.83,32.261 36.062,15.998 29.628,17.55 C27.828,17.985 20.895,30.121 23.212,31.893 C30.79,37.688 38.206,17.97 34.346,12.455 C30.229,6.574 25.799,29.212 30.572,26.609 C32.585,25.511 33.078,21.088 33.403,19.06 C36.194,1.616 6.586,11.275 11.323,14.72 C12.836,15.82 13.631,11.729 15.097,10.568 C17.811,8.42 21.104,7.034 24.533,6.605 C27.67,6.213 35.714,12.278 32.648,11.512 C29.289,10.672 28.92,6.421 23.778,6.605 C19.8,6.747 9.811,14.091 13.588,12.833 C16.568,11.839 20.252,7.55 23.401,6.039 C24.868,5.334 32.667,4.542 32.27,8.115 C31.86,11.812 24.745,6.458 21.136,7.36 C21.973,8.146 16.453,10.049 17.551,11.512 C19.358,13.921 25.477,4.159 25.477,7.171 C25.477,7.685 18.325,14.331 19.249,14.908 C22.043,16.655 24.781,7.549 26.609,7.549 C29.527,7.549 30.659,16.229 27.741,16.229 C24.899,16.229 27.88,4.963 28.496,7.737 C29.603,12.721 27.552,28.128 27.552,23.023 C27.552,18.814 32.368,7.372 29.628,10.568 C27.427,13.137 23.285,33.441 16.796,30.006 C14.523,28.802 15.431,22.348 15.475,20.57 C15.542,17.793 18.131,11.174 13.399,11.7 C10.772,11.992 5.912,18.501 8.492,17.928 C8.872,17.844 18.324,8.854 18.305,9.058 C17.912,13.386 9.165,22.113 13.399,21.136 C17.676,20.149 15.957,6.143 19.06,9.247 C20.013,10.2 17.272,21.488 17.173,23.212 C16.615,32.975 28.559,29.44 26.798,29.44 C13.173,29.44 18.306,30.696 24.344,19.626" fill="#333333"/>
    <path d="M31.327,28.873 C42.1,16.101 25.31,-0.591 13.965,11.889" fill="#333333"/>
    <path d="M28.496,20.947 C25.007,20.449 26.704,20.308 23.401,21.325" fill="#333333"/>
    <path d="M34.157,16.984 C31.238,18.98 28.215,8.375 32.459,9.436 C34.506,9.947 34.082,27.25 31.515,23.401 C28.389,18.711 38.316,10.178 27.93,6.982 C19.954,4.528 13.353,14.622 14.342,12.644 C27.015,-12.701 35.906,23.778 31.138,23.778 C29.227,23.778 26.507,11.51 21.325,10.568 C14.586,9.343 11.092,18.937 14.154,23.967 C22.161,37.121 28.984,11.482 28.873,11.512 C23.693,12.924 24.439,30.108 31.138,29.817 C35.132,29.643 36.591,13.428 34.346,16.796 C32.168,20.063 35.908,28.518 30.383,30.006 C18.028,33.332 22.973,17.18 20.381,12.644 C13.676,0.91 13.016,22.958 14.154,26.798" fill="#333333"/>
    <path d="M10.379,19.815 C10.838,11.038 15.918,7.549 24.156,7.549" fill="#333333"/>
    <path d="M8.681,11.512 C19.015,7.562 27.97,9.12 30.572,20.57" fill="#333333"/>
    <path d="M13.021,9.624 C22.832,-2.955 33.714,8.378 30.572,20.947" fill="#333333"/>
    <path d="M20.193,8.492 C12.176,8.505 8.493,16.655 12.644,23.401" fill="#333333"/>
    <path d="M16.796,11.512 C26.665,1.735 33.591,6.836 33.591,19.249" fill="#333333"/>
    <path d="M34.724,18.871 C34.987,11.13 34.153,5.389 25.099,8.681" fill="#333333"/>
    <path d="M24.156,8.492 C32.426,3.429 35.867,8.989 34.535,16.984" fill="#333333"/>
    <path d="M33.403,16.796 C36.963,4.564 25.064,3.74 18.305,11.512" fill="#333333"/>
    <path d="M15.852,10.379 C17.365,14.675 18.458,19.108 19.249,23.589" fill="#333333"/>
    <path d="M12.644,12.266 C12.7,17.59 14.505,23.24 17.739,27.552" fill="#333333"/>
    <path d="M31.704,24.91 C32.821,19.713 32.14,14.453 31.515,9.247" fill="#333333"/>
    <path d="M37.177,10.379 C39.107,16.971 37.085,22.399 32.082,26.986" fill="#333333"/>
    <path d="M29.628,30.761 C39.679,25.547 31.327,21.637 31.327,16.041 C31.327,13.818 39.589,13.21 37.366,13.21 C29.763,13.21 30.357,11.541 28.496,4.718" fill="#333333"/>
    <path d="M28.685,3.963 C29.283,11.171 28.359,18.369 27.175,25.477" fill="#333333"/>
    <path d="M16.607,6.228 C28.314,0.729 34.13,3.997 32.459,17.362" fill="#333333"/>
    <path d="M33.025,10.568 C37.786,11.092 42.477,9.909 47.179,9.624 C62.183,8.715 77.247,8.681 92.282,8.681 C103,8.681 110.808,9.047 110.776,9.058 C95.301,14.759 73.108,11.462 56.803,12.644 C46.457,13.394 34.299,15.789 34.346,15.852 C35.392,17.246 43.459,16.806 43.782,16.796 C67.945,16.016 91.737,15.097 115.871,15.097 C120.436,15.097 106.827,13.84 102.284,13.399 C96.551,12.841 41.329,10.789 41.329,13.021 C41.329,13.966 67.132,11.648 68.881,11.512 C76.918,10.885 84.99,10.803 93.037,10.379 C94.044,10.326 96.431,11.127 96.056,10.191 C94.591,6.528 42.534,11.773 39.253,8.492 C35.781,5.02 49.063,8.03 53.973,7.926 C65.167,7.688 76.365,7.737 87.564,7.737 C91.778,7.737 103.977,9.622 100.208,7.737 C91.402,3.335 70.902,6.014 61.71,6.228 C57.223,6.332 43.825,7.426 48.311,7.549 C92.88,8.764 59.634,8.231 78.317,6.794 C86.935,6.131 107.87,2.394 116.815,6.228 C119.942,7.568 110.021,6.613 106.624,6.794 C101.94,7.044 66.278,9.76 67.56,12.644 C70.11,18.381 102.529,10.347 108.134,9.813 C113.97,9.257 131.547,8.681 125.684,8.681 C113.232,8.681 99.213,13.228 99.453,13.587 C104.213,20.728 126.034,14.089 125.118,13.021 C120.532,7.671 111.02,12.305 103.982,12.644 C101.787,12.75 96.401,12.29 97.566,14.154 C99.228,16.812 122.556,14.43 122.854,12.644 C123.136,10.95 93.703,11.572 96.433,13.21 C99.786,15.222 121.13,14.572 122.099,13.021 C123.919,10.109 89.874,12.284 92.282,13.21 C100.899,16.524 124.206,14.597 118.702,11.7 C105.612,4.811 76.835,9.808 62.653,12.644 C50.937,14.987 89.609,12.68 74.731,10.002 C70.462,9.234 58.868,8.123 55.105,10.945 C53.896,11.852 84.853,10.314 82.657,9.436 C74.755,6.275 61.022,10.698 53.406,12.455 C50.227,13.189 41.445,13.854 44.159,15.663 C48.2,18.357 62.158,15.159 65.107,14.72 C76.828,12.972 82.125,11.939 82.091,11.7 C81.451,7.221 32.019,14.791 35.101,20.57 C36.962,24.06 59.179,21.29 60.766,21.136 C68.951,20.342 83.412,18.329 83.412,18.117 C83.412,15.417 50.273,19.378 46.801,20.192 C23.372,25.688 69.549,23.182 73.033,18.305 C74.065,16.86 39.292,14.349 35.101,23.778 C32.647,29.299 47.235,24.056 53.218,23.212 C61.211,22.085 70.504,22.782 76.807,17.739 C81.75,13.785 31.577,20.898 32.27,21.514 C36.545,25.313 81.327,13.41 65.484,14.72 C48.044,16.161 48.405,16.606 32.459,21.325 C31.314,21.663 27.945,22.038 29.062,22.457 C35.639,24.924 63.315,20.254 69.07,16.418 C70.17,15.685 66.387,16.276 65.107,16.607 C48.627,20.871 35.145,25.244 35.29,26.986 C35.55,30.11 78.825,24.436 74.165,23.401 C68.379,22.115 42.129,23.564 39.63,28.873 C38.476,31.327 45.04,29.625 47.745,29.44 C50.178,29.273 75.014,27.327 76.996,24.156 C78.818,21.24 33.848,26.296 36.045,27.175 C44.61,30.601 65.303,25.063 73.599,23.023 C74.653,22.764 71.475,22.405 70.391,22.457 C56.496,23.125 53.434,23.809 40.574,26.986 C39.666,27.211 36.998,27.883 37.932,27.93 C50.066,28.537 63.59,27.056 75.486,24.533 C76.411,24.337 73.593,24.225 72.655,24.344 C63.912,25.459 51.989,27.598 43.216,29.817 C42.038,30.115 38.626,30.906 39.819,31.138 C48.404,32.807 59.996,30.835 68.504,29.062 C68.552,29.052 36.968,30.379 37.932,30.572 C71.607,37.307 78.104,17.306 51.708,31.704 C49.867,32.708 74.012,30.856 70.013,30.761 C68.435,30.723 50.439,31.092 50.576,31.704 C51.176,34.405 71.191,33.643 71.523,32.648 C71.648,32.273 49.674,32.816 50.009,33.403 C52.4,37.586 91.65,31.259 59.823,34.535 C51.402,35.402 55.138,35.29 49.443,35.29 C44.052,35.29 60.177,34.166 65.484,33.214 C76.735,31.194 109.031,30.169 111.153,26.986 C111.225,26.879 99.542,25.046 89.64,25.288 C86.125,25.374 65.503,25.973 59.257,26.986 C54.475,27.762 68.952,27.267 73.788,26.986 C85.829,26.287 108.371,25.505 108.889,23.778 C110.696,17.753 65.987,21.058 57.369,23.212 C52.121,24.524 68.202,23.773 73.599,23.401 C74.056,23.369 103.776,20.508 104.359,19.815 C108.863,14.467 56.711,20.535 58.502,20.759 C70.347,22.239 97.267,24.761 107.756,18.305 C109.159,17.442 104.496,17.76 102.85,17.739 C97.646,17.674 71.247,16.07 63.408,21.514 C61.318,22.965 68.413,22.615 70.957,22.646 C72.176,22.661 101.678,22.15 107.568,20.57 C109.346,20.093 103.936,19.786 102.095,19.815 C86.048,20.072 78.5,21.105 62.653,26.231 C48.922,30.674 92.15,28.069 105.869,23.589 C118.419,19.492 53.712,23.626 66.428,27.175 C73.259,29.081 97.067,26.561 101.717,26.231 C103.667,26.093 109.515,26.016 107.568,25.854 C95.354,24.836 58.751,28.141 70.957,29.251 C75.156,29.633 79.385,29.702 83.601,29.628 C138.852,28.665 80.05,24.887 70.957,30.949 C69.009,32.248 75.599,31.655 77.939,31.704 C80.547,31.759 102.727,31.839 108.889,30.761 C109.958,30.573 106.765,30.244 105.68,30.194 C97.187,29.808 85.177,29.602 76.996,31.893 C66.934,34.71 97.974,32.205 108.323,30.761 C118.021,29.407 84.362,30.107 85.488,31.515 C88.842,35.708 113.063,30.624 118.513,29.817 C119.343,29.694 121.717,29.626 120.966,29.251 C114.608,26.071 92.591,27.964 99.642,28.873 C100.434,28.976 133.589,29.182 115.305,27.93 C93.988,26.47 112.975,31.141 121.721,30.761 C126.941,30.534 101.173,29.474 106.058,31.327 C109.839,32.761 118.967,32.836 123.042,32.836 C128.833,32.836 99.89,32.27 105.68,32.27 C107.997,32.27 122.126,32.734 125.118,31.138 C131.356,27.811 97.354,27.744 104.359,26.798 C105.553,26.636 119.366,26.759 121.91,24.533 C126.792,20.261 95.989,23.373 102.472,23.589 C117.107,24.077 123.748,23.624 121.344,23.023 C115.727,21.619 102.68,17.947 103.982,23.589 C105.328,29.424 115.982,25.568 121.91,24.722 C125.846,24.159 113.375,25.912 110.021,23.778 C122.334,9.317 123.936,32.144 116.626,30.194 C114.445,29.613 126.639,22.337 127.005,24.533 C129.394,38.867 89.605,24.51 84.733,17.55 C78.799,9.074 115.532,12.24 113.795,13.021 C108.243,15.52 82.051,18.979 79.072,19.438 C77.876,19.622 74.276,20.004 75.486,20.004 C82.067,20.004 103.446,19.318 110.398,17.928 C112.442,17.519 106.255,17.315 104.171,17.362 C94.916,17.567 85.666,18.052 76.43,18.683 C75.516,18.745 72.872,19.473 73.788,19.438 C126.453,17.412 88.136,11.933 63.031,17.928 C44.471,22.36 129.454,13.615 103.982,14.342 C44.017,16.056 67.411,26.862 99.264,16.418 C101.927,15.545 93.763,15.039 90.961,15.097 C71.895,15.49 70.244,15.908 58.124,17.928" fill="#333333"/>
    <path d="M37.366,30.572 C57.834,32.344 78.561,32.037 99.076,30.572" fill="#333333"/>
    <path d="M31.515,33.969 C52.462,35.42 73.351,36.335 94.358,34.535" fill="#333333"/>
    <path d="M39.441,35.101 C45.038,34.838 50.625,35.479 56.237,35.479 C65.906,35.479 75.16,34.738 84.733,33.403 C88.698,32.849 100.137,33.621 96.622,31.704 C85.532,25.655 60.22,31.244 48.5,32.082 C39.461,32.727 30.121,33.73 30.572,33.78 C44.402,35.317 59.806,32.459 73.788,32.459 C79.257,32.459 84.739,32.492 90.206,32.648 C91.089,32.673 93.718,32.988 92.848,32.837 C82.143,30.975 71.131,31.473 60.389,32.648 C56.604,33.062 45.501,32.821 49.066,34.158 C55.789,36.679 66.732,33.735 73.788,33.591 C77.058,33.525 86.872,33.591 83.601,33.591 C43.382,33.591 61.281,38.263 78.128,32.648" fill="#333333"/>
    <path d="M34.912,30.006 C45.694,29.494 56.428,28.286 67.183,27.364 C78.503,26.393 89.799,26.223 101.151,26.043 C106.057,25.965 120.778,26.043 115.871,26.043 C107.719,26.043 99.458,25.608 91.338,26.42 C89.063,26.648 82.386,26.608 84.544,27.364 C92.12,30.015 102.234,27.951 110.021,27.364 C112.157,27.203 118.578,27.072 116.437,26.986 C115.013,26.929 94.923,27.368 94.735,28.873 C94.535,30.477 111.228,29.726 113.04,29.628 C123.017,29.089 93.182,30.484 104.926,31.893 C110.297,32.538 126.46,32.765 121.155,31.704 C116.18,30.709 110.006,31.704 104.926,31.704" fill="#333333"/>
    <path d="M123.042,20.57 C125.536,29.637 109.201,39.005 103.227,31.704 C97.273,24.427 123.735,22.249 123.42,23.589 C121.672,31.015 96.821,28.057 98.321,25.288 C99.602,22.921 108.76,21.849 110.965,21.514 C138.07,17.389 107.232,32.366 102.095,26.043 C96.301,18.912 136.775,18.411 107.001,25.854 C103.104,26.828 96.75,27.707 92.848,28.307" fill="#333333"/>
    <path d="M116.626,19.815 C145.176,9.172 111.299,49.118 108.134,30.761 C107.322,26.052 119.708,21.693 123.042,23.967 C131.337,29.622 107.427,32.75 108.323,30.761 C111.889,22.836 134.135,32.625 95.868,28.873" fill="#333333"/>
    <path d="M103.039,26.231 C88.605,16.699 70.961,14.087 53.973,13.588 C51.828,13.524 34.307,14.03 36.422,11.512 C44.253,2.189 86.312,5.721 83.601,10.757 C80.874,15.822 55.564,10.591 51.142,10.002 C50.526,9.92 39.223,8.222 39.253,8.115 C40.658,2.963 65.206,1.018 66.428,7.737 C67.258,12.305 40.697,13.633 39.63,11.323 C36.521,4.586 66.815,5.745 65.673,7.926 C63.118,12.804 51.788,11.99 47.368,11.889 C44.895,11.833 39.27,13.306 40.008,10.946 C42.211,3.895 94.126,7.711 40.008,14.154" fill="#333333"/>
    <path d="M45.669,15.097 C43.855,14.174 69.458,8.966 66.428,9.625 C56.786,11.721 45.828,14.104 46.046,14.154 C65.052,18.473 76.529,3.207 43.404,13.399" fill="#333333"/>
    <path d="M55.294,13.965 C68.012,9.361 81.892,8.586 95.301,7.926 C98.066,7.79 106.319,7.194 103.605,7.737 C86.829,11.093 70.922,11.63 71.334,12.455 C72.076,13.938 97.851,10.748 98.132,9.625 C98.435,8.411 69.758,12.605 73.41,13.399 C82.079,15.283 96.208,12.587 93.792,12.078 C82.187,9.635 60.788,16.181 87.186,14.531" fill="#333333"/>
    <path d="M48.877,15.852 C48.983,12.385 37.401,18.388 38.498,15.097 C39.122,13.225 63.877,11.794 59.257,11.134 C51.127,9.973 27.332,11.75 34.912,14.908 C41.156,17.51 57.472,6.837 36.045,17.551" fill="#333333"/>
    <path d="M71.146,10.757 C76.14,8.141 74.065,8.754 79.827,7.737 C81.081,7.516 121.387,4.138 117.758,8.492 C115.719,10.94 85.259,7.012 74.543,11.7" fill="#333333"/>
    <path d="M73.599,8.492 C87.791,3.41 109.679,-0.154 121.533,11.7" fill="#333333"/>
    <path d="M75.109,10.757 C84.802,7.694 121.194,-2.089 122.099,15.097" fill="#333333"/>
    <path d="M94.735,11.7 C107.584,6.189 136.333,1.19 114.739,20.193" fill="#333333"/>
    <path d="M121.91,7.926 C106.104,10.924 87.214,12.429 75.298,24.344" fill="#333333"/>
    <path d="M106.813,12.833 C94.492,11.489 79.234,16.168 71.334,26.043" fill="#333333"/>
    <path d="M79.449,11.512 C92.039,7.782 108.534,6.306 120.023,13.965" fill="#333333"/>
    <path d="M71.334,12.455 C83.279,6.796 112.736,3.865 110.021,23.778" fill="#333333"/>
    <path d="M82.846,15.663 C92.577,14.987 110.586,9.92 113.984,22.834" fill="#333333"/>
    <path d="M6.16,32.937 L8.281,33.298 L11.75,34.205 L18.062,36.053 L25.293,37.528 L34.33,37.862 L43.235,36.135 L46.729,33.996 L48.54,32.162 L49.372,31.086 L49.372,31.086 C49.919,30.377 47.485,29.713 43.937,29.604 C40.389,29.494 37.07,29.981 36.524,30.691 L35.778,31.667 L34.272,33.253 L32.428,34.69 L33.642,35.266 L34.476,35.687 L28.786,34.584 L21.909,32.583 L16.699,31.316 L14.574,30.955 C11.837,30.491 7.735,30.558 5.412,31.105 C3.088,31.652 3.423,32.473 6.16,32.937 L6.16,32.937" fill="#333333"/>
    <text transform="matrix(1, 0, 0, 1, 72.648, 11.157)">
      <tspan x="-17.355" y="1.27" font-family="HelveticaNeue-Bold" font-size="7" fill="#FFFFFF">Join my</tspan>
    </text>
    <text transform="matrix(1, 0, 0, 1, 99.736, 34.328)">
      <tspan x="-25.363" y="1.328" font-family="HelveticaNeue-Bold" font-size="7" fill="#FFFFFF">&gt; click here</tspan>
    </text>
    <g>
      <path d="M35.594,28.204 L27.418,20.016 L35.594,11.827 L35.594,28.204 z M10.051,29.759 L18.242,21.579 L18.594,21.915 C20.532,23.759 23.608,23.759 25.455,21.915 L25.807,21.563 L34.047,29.758 L10.051,29.758 z M8.579,11.828 L16.747,20.017 L8.563,28.205 L8.579,11.828 z M34.028,10.267 L23.967,20.32 C22.94,21.353 21.112,21.328 20.063,20.285 L10.063,10.267 L34.028,10.267 z M6.36,31.964 L37.899,31.964 L37.899,8.036 L6.36,8.036 L6.36,31.964 z" fill="#FFFFFF"/>
      <path d="M35.594,28.204 L27.418,20.016 L35.594,11.827 L35.594,28.204 z M10.051,29.759 L18.242,21.579 L18.594,21.915 C20.532,23.759 23.608,23.759 25.455,21.915 L25.807,21.563 L34.047,29.758 L10.051,29.758 z M8.579,11.828 L16.747,20.017 L8.563,28.205 L8.579,11.828 z M34.028,10.267 L23.967,20.32 C22.94,21.353 21.112,21.328 20.063,20.285 L10.063,10.267 L34.028,10.267 z M6.36,31.964 L37.899,31.964 L37.899,8.036 L6.36,8.036 L6.36,31.964 z" fill-opacity="0" stroke="#808080" stroke-width="1" stroke-opacity="0.688"/>
    </g>
    <text transform="matrix(1, 0, 0, 1, 86.436, 20.663)">
      <tspan x="-44.855" y="5.137" font-family="HelveticaNeue-Bold" font-size="14" fill="#FFFFFF">Mailing List</tspan>
    </text>
    <path d="M60.064,36.332 L60.872,35.903 L61.868,35.511 L60.164,35.988 L55.161,36.087 L58.066,36.365 L63.48,36.403 L69.131,35.881 L72.11,35.408 L72.11,35.408 C74.857,34.945 75.211,34.125 72.9,33.576 C70.589,33.026 66.489,32.956 63.742,33.418 L62.702,33.621 L62.027,33.819 L62.982,33.958 L62.805,33.984 L54.685,33.63 L50.199,34.365 L48.707,34.987 L47.897,35.417 C46.633,36.089 48.332,36.839 51.692,37.091 C55.052,37.344 58.8,37.004 60.064,36.332 L60.064,36.332" fill="#333333"/>
  </g>
  <defs/>
</svg>
